<?xml version="1.0" standalone="no"?>
<!DOCTYPE svg PUBLIC "-//W3C//DTD SVG 20010904//EN"
 "http://www.w3.org/TR/2001/REC-SVG-20010904/DTD/svg10.dtd">
<svg version="1.0" xmlns="http://www.w3.org/2000/svg"
 width="220.000000pt" height="220.000000pt" viewBox="0 0 220.000000 220.000000"
 preserveAspectRatio="xMidYMid meet">
<metadata>
Created by potrace 1.14, written by Peter Selinger 2001-2017
</metadata>
<g transform="translate(0.000000,220.000000) scale(0.100000,-0.100000)"
fill="#000000" stroke="none">
<path d="M929 2186 c-2 -2 -22 -6 -44 -10 -294 -42 -612 -279 -763 -568 -56
-107 -112 -275 -112 -337 l0 -21 468 0 467 0 0 464 c0 256 -3 467 -6 470 -3 3
-8 4 -10 2z"/>
<path d="M1265 1721 l0 -466 455 -3 c250 -1 460 0 466 2 9 3 7 27 -7 84 -60
259 -207 484 -424 647 -107 81 -325 178 -430 191 -22 3 -45 7 -50 8 -7 2 -10
-155 -10 -463z"/>
<path d="M15 886 c4 -22 8 -45 9 -51 2 -5 6 -23 10 -40 4 -16 17 -55 28 -85
116 -306 359 -548 658 -656 53 -19 188 -54 210 -54 13 0 15 56 14 453 -1 248
-2 457 -3 463 -1 9 -124 12 -467 12 l-466 -1 7 -41z"/>
<path d="M1269 926 c-1 0 -2 -209 -3 -464 -1 -329 2 -462 10 -462 20 0 169 40
224 61 246 91 471 299 591 544 47 98 99 254 99 300 l0 23 -460 0 c-253 -1
-461 -1 -461 -2z"/>
</g>
</svg>
